<?xml version="1.0" standalone="no"?>
<!DOCTYPE svg PUBLIC "-//W3C//DTD SVG 20010904//EN"
 "http://www.w3.org/TR/2001/REC-SVG-20010904/DTD/svg10.dtd">
<svg version="1.0" xmlns="http://www.w3.org/2000/svg"
 width="700.000000pt" height="700.000000pt" viewBox="0 0 700.000000 700.000000"
 preserveAspectRatio="xMidYMid meet">
<metadata>
Created by potrace 1.14, written by Peter Selinger 2001-2017
</metadata>
<g transform="translate(0.000000,700.000000) scale(0.100000,-0.100000)"
fill="#000000" stroke="none">
<path d="M2220 5979 c-908 -93 -1676 -761 -1894 -1649 -29 -122 -56 -295 -56
-368 0 -55 -1 -57 -73 -104 -90 -58 -147 -181 -133 -287 8 -59 47 -138 85
-175 l30 -29 -44 -50 c-82 -94 -135 -235 -135 -363 0 -76 31 -200 67 -267 32
-58 122 -159 164 -184 l29 -17 0 -331 c0 -182 5 -369 11 -415 24 -191 96 -337
239 -480 124 -124 221 -180 391 -227 60 -17 209 -18 2599 -18 2443 0 2538 1
2605 19 335 89 582 369 625 708 5 45 10 231 10 414 l0 331 26 14 c38 20 136
129 167 188 36 65 67 189 67 265 0 125 -48 254 -133 358 l-44 54 42 46 c124
137 87 362 -73 455 -59 34 -62 38 -62 97 0 74 -28 248 -60 377 -168 675 -663
1239 -1315 1497 -183 72 -388 122 -589 141 -133 13 -2418 13 -2546 0z m2521
-209 c633 -63 1193 -420 1514 -965 141 -239 240 -543 261 -802 l7 -83 -2507 0
-2506 0 0 -55 0 -55 -150 0 -150 0 0 55 0 55 -366 0 -367 0 7 83 c21 259 120
563 261 802 318 541 874 898 1501 964 118 12 2371 13 2495 1z m-1441 -3377
c-1 -9 -1019 -559 -1030 -556 -13 4 -1015 546 -1024 554 -6 5 450 9 1022 9
568 0 1032 -3 1032 -7z m-1768 -399 c403 -218 738 -397 743 -397 6 0 339 179
742 397 l732 396 1391 0 1390 0 0 -120 0 -120 -1110 0 -1110 0 0 -105 0 -105
1110 0 1110 0 0 -49 c0 -305 -159 -539 -432 -639 l-73 -27 -2525 0 -2525 0
-73 27 c-234 85 -388 273 -421 511 -6 43 -11 202 -11 353 l0 274 165 0 164 0
733 -396z"/>
<path d="M2307 5534 c-4 -4 -7 -52 -7 -106 l0 -98 170 0 171 0 -3 103 -3 102
-161 3 c-88 1 -163 -1 -167 -4z"/>
<path d="M3337 5534 c-4 -4 -7 -52 -7 -106 l0 -98 170 0 171 0 -3 103 -3 102
-161 3 c-88 1 -163 -1 -167 -4z"/>
<path d="M4367 5534 c-4 -4 -7 -52 -7 -106 l0 -98 170 0 171 0 -3 103 -3 102
-161 3 c-88 1 -163 -1 -167 -4z"/>
<path d="M1790 4980 l0 -110 165 0 165 0 0 110 0 110 -165 0 -165 0 0 -110z"/>
<path d="M2820 4980 l0 -110 165 0 165 0 0 110 0 110 -165 0 -165 0 0 -110z"/>
<path d="M3850 4980 l0 -110 165 0 165 0 0 110 0 110 -165 0 -165 0 0 -110z"/>
<path d="M4880 4980 l0 -110 165 0 165 0 0 110 0 110 -165 0 -165 0 0 -110z"/>
</g>
</svg>
